<?xml version="1.0" standalone="no"?>
<!DOCTYPE svg PUBLIC "-//W3C//DTD SVG 20010904//EN"
 "http://www.w3.org/TR/2001/REC-SVG-20010904/DTD/svg10.dtd">
<svg version="1.0" xmlns="http://www.w3.org/2000/svg"
 width="669.000000pt" height="669.000000pt" viewBox="0 0 669.000000 669.000000"
 preserveAspectRatio="xMidYMid meet">
<metadata>
Created by potrace 1.11, written by Peter Selinger 2001-2013
</metadata>
<g transform="translate(0.000000,669.000000) scale(0.100000,-0.100000)"
fill="#000000" stroke="none">
<path d="M140 3345 l0 -3345 3205 0 3205 0 0 3345 0 3345 -3205 0 -3205 0 0
-3345z m4273 3195 c140 -33 261 -60 270 -60 53 0 -5 -23 -175 -69 -106 -29
-272 -74 -368 -101 -96 -27 -233 -65 -305 -84 -71 -19 -287 -78 -480 -131
-192 -53 -498 -136 -680 -186 -181 -49 -381 -104 -443 -121 -110 -30 -116 -30
-198 -19 -108 15 -202 44 -284 87 -67 35 -180 118 -180 132 0 5 84 28 187 51
104 24 298 69 433 101 260 61 597 139 1160 270 468 109 729 171 765 180 17 5
33 9 38 9 4 1 121 -26 260 -59z m-2962 -1314 c88 -60 227 -129 322 -160 86
-28 231 -56 290 -56 l37 0 2 -582 c1 -321 5 -538 8 -483 l6 100 2 -112 2 -112
-32 5 c-328 54 -590 176 -738 342 l-50 56 2 400 c2 361 3 378 8 171 5 -215 6
-205 8 149 l2 379 33 -26 c17 -15 62 -46 98 -71z m3044 -1554 c94 -58 204
-126 245 -152 41 -27 143 -89 225 -140 196 -120 275 -171 275 -177 0 -5 -69
34 -85 49 -5 4 -14 8 -20 8 -5 0 -4 -4 4 -9 20 -13 3 -34 -23 -27 -18 4 -16 1
9 -21 l30 -25 -40 23 c-22 12 -85 50 -140 84 -55 35 -129 80 -165 102 -36 22
-121 75 -190 118 -202 125 -318 195 -324 195 -6 0 -230 -92 -511 -210 -93 -40
-239 -100 -324 -136 -85 -35 -159 -68 -164 -73 -5 -5 60 -51 160 -111 456
-279 583 -359 583 -367 0 -2 -19 7 -42 20 -31 18 -50 22 -68 17 -14 -5 -40 -8
-57 -9 -35 -1 -45 -17 -15 -24 9 -2 -20 -7 -65 -12 -58 -5 -83 -12 -83 -21 0
-7 15 -14 38 -17 22 -2 11 -4 -30 -5 -51 -2 -68 -6 -68 -16 0 -10 -19 -16 -65
-21 -61 -7 -80 -17 -52 -28 6 -3 1 -6 -13 -6 -15 -1 -30 -5 -35 -10 -6 -5 -53
-14 -105 -19 -52 -6 -96 -15 -98 -21 -2 -6 -18 -11 -37 -11 -52 0 -95 -11 -95
-26 0 -9 -23 -15 -72 -20 l-72 -7 78 -23 c44 -13 82 -27 85 -30 3 -4 -5 -4
-19 0 -209 58 -394 88 -650 106 -264 18 -579 10 -944 -25 -88 -8 -160 -14
-162 -12 -2 2 49 24 114 50 105 42 242 98 562 231 58 24 183 76 278 115 335
138 520 215 782 324 146 60 312 129 370 152 58 24 182 74 275 113 462 192 531
219 540 214 6 -3 87 -53 180 -110z m57 -203 c145 -88 279 -171 298 -183 19
-13 163 -102 320 -198 157 -97 341 -210 410 -253 69 -43 171 -105 227 -139 57
-33 103 -64 103 -68 0 -3 -31 -21 -70 -39 -38 -17 -67 -36 -64 -40 3 -5 -1 -6
-9 -3 -17 6 -229 -85 -222 -96 7 -11 -72 -43 -86 -35 -8 6 -10 4 -4 -5 6 -10
4 -12 -9 -7 -10 4 -15 3 -11 -3 3 -6 5 -10 3 -10 -2 0 -86 -36 -188 -80 l-185
-79 -60 38 c-33 21 -88 55 -123 75 -34 21 -60 41 -57 46 3 5 0 12 -6 16 -8 5
-9 3 -4 -6 5 -8 3 -11 -6 -8 -8 3 -13 11 -11 17 1 7 -2 10 -7 7 -9 -6 -155 75
-196 109 -27 22 -13 15 70 -35 83 -50 97 -57 70 -35 -43 35 -156 96 -167 89
-6 -4 -8 -3 -5 4 7 10 -27 32 -273 184 -58 35 -193 119 -300 185 -107 66 -275
170 -373 229 -97 60 -178 113 -180 118 -2 9 102 54 568 246 110 45 218 90 240
100 22 10 41 19 42 19 1 1 121 -71 265 -160z m658 -326 c0 -7 -39 17 -46 28
-3 6 5 3 20 -6 14 -10 26 -19 26 -22z m150 -9 c0 -2 -9 0 -20 6 -11 6 -20 13
-20 16 0 2 9 0 20 -6 11 -6 20 -13 20 -16z m-1285 -352 c-3 -3 -11 0 -18 7 -9
10 -8 11 6 5 10 -3 15 -9 12 -12z m105 -58 c0 -2 -9 0 -20 6 -11 6 -20 13 -20
16 0 2 9 0 20 -6 11 -6 20 -13 20 -16z m1550 -204 c-8 -5 -19 -10 -25 -10 -5
0 -3 5 5 10 8 5 20 10 25 10 6 0 3 -5 -5 -10z m679 -324 c-5 -176 -12 -323
-16 -327 -5 -4 -82 -46 -173 -94 -91 -48 -505 -268 -920 -488 -415 -220 -874
-462 -1020 -539 -146 -77 -296 -157 -335 -178 -38 -21 -196 -104 -350 -185
-154 -81 -294 -156 -312 -166 l-32 -20 -598 477 c-329 263 -651 520 -715 571
-65 52 -118 100 -118 106 0 7 13 35 29 63 33 57 89 111 126 120 14 3 25 10 25
14 0 16 -653 545 -669 542 -43 -8 -107 -61 -149 -122 -24 -36 -49 -67 -54 -69
-10 -3 -1 415 11 497 l6 42 760 -560 c418 -308 885 -653 1039 -766 153 -113
283 -207 290 -210 6 -2 724 360 1596 804 872 445 1586 808 1587 808 0 -1 -3
-145 -8 -320z m-774 284 c-33 -16 -64 -29 -70 -29 -13 1 107 57 120 57 6 0
-17 -13 -50 -28z m-2395 10 c8 -5 11 -10 5 -10 -5 0 -17 5 -25 10 -8 5 -10 10
-5 10 6 0 17 -5 25 -10z m-1808 -547 c51 -42 120 -100 154 -127 33 -28 115
-96 182 -150 l121 -99 -38 -44 c-50 -56 -92 -137 -184 -354 -128 -300 -201
-424 -307 -522 -73 -68 -220 -142 -220 -111 0 3 9 40 20 82 34 133 51 271 60
467 4 105 7 191 5 193 -1 1 -42 -17 -91 -42 -130 -65 -205 -87 -314 -93 l-95
-6 67 69 c122 126 174 206 314 486 52 105 108 211 125 237 34 50 77 91 96 91
7 0 54 -35 105 -77z m609 -900 c13 -16 12 -17 -3 -4 -17 13 -22 21 -14 21 2 0
10 -8 17 -17z m154 -123 c10 -11 16 -20 13 -20 -3 0 -13 9 -23 20 -10 11 -16
20 -13 20 3 0 13 -9 23 -20z m150 -120 c10 -11 16 -20 13 -20 -3 0 -13 9 -23
20 -10 11 -16 20 -13 20 3 0 13 -9 23 -20z m2265 5 c0 -2 -10 -9 -22 -15 -22
-11 -22 -10 -4 4 21 17 26 19 26 11z"/>
<path d="M3916 2865 c10 -8 23 -15 28 -15 6 0 1 7 -10 15 -10 8 -23 15 -28 15
-6 0 -1 -7 10 -15z"/>
<path d="M5500 2440 c-8 -5 -10 -10 -5 -10 6 0 17 5 25 10 8 5 11 10 5 10 -5
0 -17 -5 -25 -10z"/>
<path d="M5300 2355 c-14 -8 -20 -14 -15 -14 6 0 21 6 35 14 14 8 21 14 15 14
-5 0 -21 -6 -35 -14z"/>
<path d="M4910 2346 c0 -3 9 -10 20 -16 11 -6 20 -8 20 -6 0 3 -9 10 -20 16
-11 6 -20 8 -20 6z"/>
</g>
</svg>
